<svg width="512" height="512" viewBox="0 0 512 512" fill="none" xmlns="http://www.w3.org/2000/svg">
<path d="M415.27 214.69V146.55C326.19 142.8 323.38 61.86 323.27 54.25V53.68H254.49V319.06C254.482 330.524 250.859 341.693 244.137 350.979C237.415 360.265 227.936 367.195 217.048 370.783C206.161 374.371 194.419 374.435 183.493 370.964C172.567 367.494 163.014 360.667 156.191 351.455C149.369 342.242 145.626 331.113 145.494 319.65C145.361 308.187 148.847 296.974 155.455 287.607C162.063 278.239 171.456 271.193 182.299 267.472C193.142 263.751 204.882 263.544 215.85 266.88V196.59C190.956 193.356 165.667 197.785 143.354 209.288C121.041 220.791 102.764 238.821 90.9583 260.975C79.1525 283.129 74.379 308.355 77.2738 333.291C80.1687 358.227 90.5945 381.689 107.162 400.549C123.729 419.409 145.651 432.773 170.005 438.858C194.36 444.943 219.991 443.461 243.482 434.61C266.973 425.758 287.209 409.958 301.492 389.314C315.776 368.67 323.428 344.163 323.43 319.06C323.43 317.33 323.38 315.61 323.31 313.9V183.22C355 212.22 415.27 214.69 415.27 214.69Z" fill="#00F6EF"/>
<path d="M435.54 231.47V163.33C346.46 159.57 343.65 78.63 343.54 71.03V70.45H274.76V335.84C274.758 347.315 271.137 358.496 264.412 367.794C257.688 377.092 248.202 384.031 237.305 387.626C226.408 391.22 214.655 391.286 203.718 387.814C192.781 384.343 183.218 377.51 176.389 368.288C169.561 359.067 165.814 347.926 165.684 336.452C165.553 324.979 169.044 313.756 175.661 304.381C182.278 295.006 191.683 287.957 202.537 284.237C213.392 280.517 225.144 280.315 236.12 283.66V213.37C211.226 210.136 185.937 214.565 163.624 226.068C141.311 237.571 123.034 255.601 111.228 277.755C99.4225 299.909 94.649 325.135 97.5439 350.071C100.439 375.007 110.864 398.469 127.432 417.329C143.999 436.189 165.921 449.553 190.275 455.638C214.63 461.723 240.261 460.241 263.752 451.39C287.243 442.538 307.479 426.738 321.762 406.094C336.046 385.45 343.698 360.943 343.7 335.84C343.7 334.11 343.65 332.39 343.58 330.68V200C375.28 229 435.54 231.47 435.54 231.47Z" fill="white"/>
<path d="M325 70.45C328.32 88.52 338 116.79 366.28 133.32C344.68 108.17 343.58 75.71 343.54 71.03V70.45H325Z" fill="#FF004F"/>
<path d="M435.54 231.47V163.33C428.73 163.065 421.951 162.255 415.27 160.91V214.57C415.27 214.57 355.01 212.1 323.27 183.11V313.78C323.34 315.5 323.39 317.21 323.39 318.94C323.39 341.282 317.329 363.206 305.851 382.376C294.374 401.545 277.912 417.242 258.217 427.793C238.523 438.344 216.336 443.354 194.018 442.29C171.701 441.226 150.091 434.127 131.49 421.75C148.596 439.425 170.591 451.588 194.655 456.681C218.719 461.773 243.756 459.563 266.556 450.333C289.356 441.103 308.879 425.274 322.624 404.875C336.368 384.476 343.707 360.437 343.7 335.84C343.7 334.11 343.65 332.39 343.58 330.68V200C375.28 229 435.54 231.47 435.54 231.47Z" fill="#FF004F"/>
<path d="M215.85 266.76C202.71 262.774 188.551 263.889 176.197 269.882C163.843 275.876 154.203 286.307 149.2 299.094C144.198 311.882 144.202 326.085 149.21 338.871C154.218 351.656 163.863 362.082 176.22 368.07C169.449 358.833 165.759 347.699 165.671 336.246C165.583 324.794 169.102 313.604 175.73 304.264C182.358 294.924 191.758 287.907 202.598 284.209C213.437 280.511 225.165 280.319 236.12 283.66V213.37C230.843 212.698 225.529 212.364 220.21 212.37C218.75 212.37 217.3 212.37 215.85 212.46V266.76Z" fill="#FF004F"/>
</svg>
